<svg xmlns="http://www.w3.org/2000/svg" width="900" height="760" viewBox="0 0 900 760" font-family="Helvetica,Arial,sans-serif">
<defs><marker id="ah" viewBox="0 0 10 10" refX="9" refY="5" markerWidth="7" markerHeight="7" orient="auto-start-reverse"><path d="M 0 0 L 10 5 L 0 10 z" fill="#5a6478"/></marker></defs>
<rect width="900" height="760" fill="#ffffff"/>
<text x="450.0" y="30" text-anchor="middle" font-size="17" font-weight="700" fill="#1a1a1a">Training &amp; Evaluation Pipeline</text>
<path d="M 450.0 115.0 L 450.0 143.0" fill="none" stroke="#5a6478" stroke-width="1.8" marker-end="url(#ah)"/>
<path d="M 450.0 205.0 L 450.0 233.0" fill="none" stroke="#5a6478" stroke-width="1.8" marker-end="url(#ah)"/>
<path d="M 450.0 293.0 L 450.0 318.0" fill="none" stroke="#5a6478" stroke-width="1.8" marker-end="url(#ah)"/>
<path d="M 365.4 368.0 L 264.0 398.0" fill="none" stroke="#5a6478" stroke-width="1.8" marker-end="url(#ah)"/>
<path d="M 256.2 458.0 L 350.0 488.0" fill="none" stroke="#5a6478" stroke-width="1.8" marker-end="url(#ah)"/>
<path d="M 449.3 368.0 L 448.4 398.0" fill="none" stroke="#5a6478" stroke-width="1.8" marker-end="url(#ah)"/>
<path d="M 448.3 458.0 L 449.1 488.0" fill="none" stroke="#5a6478" stroke-width="1.8" marker-end="url(#ah)"/>
<path d="M 533.1 368.0 L 632.8 398.0" fill="none" stroke="#5a6478" stroke-width="1.8" marker-end="url(#ah)"/>
<path d="M 640.4 458.0 L 548.3 488.0" fill="none" stroke="#5a6478" stroke-width="1.8" marker-end="url(#ah)"/>
<path d="M 450.0 552.0 L 450.0 578.0" fill="none" stroke="#5a6478" stroke-width="1.8" marker-end="url(#ah)"/>
<path d="M 450.0 634.0 L 450.0 668.0" fill="none" stroke="#5a6478" stroke-width="1.8" marker-end="url(#ah)"/>
<rect x="270" y="55" width="360" height="58" rx="8" fill="#4a7fb5" stroke="#2f5c8a" stroke-width="1.5"/>
<text x="450.0" y="80.0" text-anchor="middle" font-size="13" font-weight="700" fill="#ffffff">Zarr Store  (from Crash-0)</text>
<text x="450.0" y="97.0" text-anchor="middle" font-size="12" font-weight="400" fill="#ffffff">train/Run*.zarr   val/Run*.zarr</text>
<rect x="270" y="145" width="360" height="58" rx="8" fill="#ffffff" stroke="#8a94a6" stroke-width="1.5"/>
<text x="450.0" y="170.0" text-anchor="middle" font-size="13" font-weight="700" fill="#1a1a1a">zarr_reader  (reader=zarr)</text>
<text x="450.0" y="187.0" text-anchor="middle" font-size="12" font-weight="400" fill="#1a1a1a">find_zarr_stores() filters on '.zarr'</text>
<rect x="270" y="235" width="360" height="56" rx="8" fill="#6a5acd" stroke="#4d3fa8" stroke-width="1.5"/>
<text x="450.0" y="259.0" text-anchor="middle" font-size="13" font-weight="700" fill="#ffffff">datapipe</text>
<text x="450.0" y="276.0" text-anchor="middle" font-size="12" font-weight="400" fill="#ffffff">normalize -&gt; SimSample</text>
<rect x="270" y="320" width="360" height="46" rx="8" fill="#ffffff" stroke="#8a94a6" stroke-width="1.5"/>
<text x="450.0" y="347.0" text-anchor="middle" font-size="12" font-weight="700" fill="#1a1a1a">DataLoader  (batch = 1, variable N)</text>
<rect x="30" y="400" width="265" height="56" rx="8" fill="#6a5acd" stroke="#4d3fa8" stroke-width="1.5"/>
<text x="162.5" y="424.0" text-anchor="middle" font-size="12" font-weight="700" fill="#ffffff">One-Shot</text>
<text x="162.5" y="440.0" text-anchor="middle" font-size="11" font-weight="400" fill="#ffffff">out_dim = 150</text>
<rect x="315" y="400" width="265" height="56" rx="8" fill="#6a5acd" stroke="#4d3fa8" stroke-width="1.5"/>
<text x="447.5" y="424.0" text-anchor="middle" font-size="12" font-weight="700" fill="#ffffff">Time-Conditional</text>
<text x="447.5" y="440.0" text-anchor="middle" font-size="11" font-weight="400" fill="#ffffff">out_dim = 3</text>
<rect x="600" y="400" width="265" height="56" rx="8" fill="#6a5acd" stroke="#4d3fa8" stroke-width="1.5"/>
<text x="732.5" y="424.0" text-anchor="middle" font-size="12" font-weight="700" fill="#ffffff">Autoregressive</text>
<text x="732.5" y="440.0" text-anchor="middle" font-size="11" font-weight="400" fill="#ffffff">composed from model/</text>
<rect x="250" y="490" width="400" height="60" rx="8" fill="#e07b00" stroke="#a85c00" stroke-width="1.5"/>
<text x="450.0" y="516.0" text-anchor="middle" font-size="13" font-weight="700" fill="#ffffff">train.py</text>
<text x="450.0" y="533.0" text-anchor="middle" font-size="12" font-weight="400" fill="#ffffff">MSE + Muon/Adam · AMP · DDP</text>
<rect x="250" y="580" width="400" height="52" rx="8" fill="#ffffff" stroke="#8a94a6" stroke-width="1.5"/>
<text x="450.0" y="602.0" text-anchor="middle" font-size="13" font-weight="700" fill="#1a1a1a">inference.py</text>
<text x="450.0" y="619.0" text-anchor="middle" font-size="12" font-weight="400" fill="#1a1a1a">rollout + denormalize</text>
<rect x="250" y="670" width="400" height="56" rx="8" fill="#1a6b3a" stroke="#0d4a28" stroke-width="1.5"/>
<text x="450.0" y="694.0" text-anchor="middle" font-size="13" font-weight="700" fill="#ffffff">Evaluation — Sections 9-14</text>
<text x="450.0" y="711.0" text-anchor="middle" font-size="12" font-weight="400" fill="#ffffff">MSE · L2 vs t · deformation plots</text>
</svg>